<svg width="21" height="20" viewBox="0 0 21 20" fill="none" xmlns="http://www.w3.org/2000/svg">
<path d="M11.7289 1.44418L13.4889 4.99288C13.7289 5.48687 14.3689 5.9607 14.9089 6.05143L18.0989 6.58576C20.1389 6.92853 20.6189 8.42059 19.1489 9.8925L16.6689 12.3927C16.2489 12.8161 16.0189 13.6327 16.1489 14.2175L16.8589 17.3125C17.4189 19.7623 16.1289 20.71 13.9789 19.4296L10.9889 17.6452C10.4489 17.3226 9.55893 17.3226 9.00893 17.6452L6.01893 19.4296C3.87893 20.71 2.57893 19.7522 3.13893 17.3125L3.84893 14.2175C3.97893 13.6327 3.74893 12.8161 3.32893 12.3927L0.848932 9.8925C-0.611068 8.42059 -0.141067 6.92853 1.89893 6.58576L5.08893 6.05143C5.61893 5.9607 6.25893 5.48687 6.49893 4.99288L8.25893 1.44418C9.21893 -0.481393 10.7789 -0.481393 11.7289 1.44418Z" fill="#FE7D55"/>
</svg>
