<svg width="40" height="40" viewBox="0 0 40 40" fill="none" xmlns="http://www.w3.org/2000/svg">
<rect x="0.5" y="0.5" width="39" height="39" rx="19.5" fill="white"/>
<path d="M17.2188 26.0942C22.8778 26.0942 25.9739 21.4046 25.9739 17.3391C25.9739 17.2073 25.971 17.0725 25.9651 16.9407C26.5674 16.5051 27.0872 15.9656 27.5 15.3475C26.9391 15.5971 26.3435 15.7601 25.7337 15.8309C26.3758 15.446 26.8566 14.8414 27.0869 14.1291C26.4828 14.4871 25.8222 14.7396 25.1334 14.8758C24.6693 14.3827 24.0556 14.0562 23.3873 13.9467C22.719 13.8373 22.0332 13.9511 21.4361 14.2705C20.8389 14.5899 20.3636 15.0971 20.0837 15.7138C19.8037 16.3304 19.7346 17.0221 19.8872 17.6819C18.6641 17.6205 17.4675 17.3028 16.375 16.7493C15.2825 16.1958 14.3186 15.4189 13.5456 14.4689C13.1527 15.1462 13.0325 15.9477 13.2094 16.7105C13.3863 17.4733 13.8469 18.1401 14.4978 18.5754C14.0091 18.5599 13.5312 18.4284 13.1035 18.1917V18.2297C13.1031 18.9406 13.3488 19.6296 13.7989 20.1797C14.2491 20.7298 14.8758 21.1071 15.5727 21.2473C15.12 21.3712 14.645 21.3892 14.1843 21.3001C14.3809 21.9114 14.7635 22.446 15.2786 22.8294C15.7937 23.2128 16.4157 23.4258 17.0577 23.4387C15.9678 24.2949 14.6214 24.7593 13.2354 24.7571C12.9896 24.7567 12.744 24.7416 12.5 24.712C13.908 25.6153 15.546 26.0951 17.2188 26.0942Z" fill="black"/>
<rect x="0.5" y="0.5" width="39" height="39" rx="19.5" stroke="white"/>
</svg>
