<svg width="64" height="64" viewBox="0 0 64 64" fill="none" xmlns="http://www.w3.org/2000/svg">
<path d="M51.9999 21.3333C55.6818 21.3333 58.6666 18.3486 58.6666 14.6667C58.6666 10.9848 55.6818 8 51.9999 8C48.318 8 45.3333 10.9848 45.3333 14.6667C45.3333 18.3486 48.318 21.3333 51.9999 21.3333Z" fill="#292D32"/>
<path d="M51.9999 21.3333C55.6818 21.3333 58.6666 18.3486 58.6666 14.6667C58.6666 10.9848 55.6818 8 51.9999 8C48.318 8 45.3333 10.9848 45.3333 14.6667C45.3333 18.3486 48.318 21.3333 51.9999 21.3333Z" fill="#FE7D55"/>
<path d="M55.2533 24.8267C56.9333 24.2934 58.6666 25.6 58.6666 27.3867V41.36C58.6666 50.6933 53.3332 54.6933 45.3332 54.6933H18.6666C10.6666 54.6933 5.33325 50.6933 5.33325 41.36V22.6933C5.33325 13.36 10.6666 9.36002 18.6666 9.36002H38.9599C40.6932 9.36002 41.8665 10.96 41.5465 12.64C41.2265 14.2134 41.2799 15.8934 41.7599 17.6267C42.7466 21.2 45.6532 24.0533 49.2266 24.9867C51.3332 25.52 53.3866 25.4134 55.2533 24.8267Z" fill="#FE7D55"/>
<g filter="url(#filter0_b_2292_521)">
<path d="M32 34.32C29.76 34.32 27.4933 33.6267 25.76 32.2134L17.4133 25.5467C16.56 24.8534 16.4 23.6 17.0933 22.7467C17.7867 21.8934 19.04 21.7334 19.8933 22.4267L28.24 29.0934C30.2666 30.7201 33.7066 30.7201 35.7333 29.0934L38.8799 26.5867C39.7333 25.8934 41.0133 26.0267 41.68 26.9067C42.3733 27.76 42.24 29.04 41.36 29.7067L38.2133 32.2134C36.5066 33.6267 34.24 34.32 32 34.32Z" fill="white" fill-opacity="0.3"/>
</g>
<defs>
<filter id="filter0_b_2292_521" x="-3.34058" y="1.99283" width="65.4629" height="52.3272" filterUnits="userSpaceOnUse" color-interpolation-filters="sRGB">
<feFlood flood-opacity="0" result="BackgroundImageFix"/>
<feGaussianBlur in="BackgroundImageFix" stdDeviation="10"/>
<feComposite in2="SourceAlpha" operator="in" result="effect1_backgroundBlur_2292_521"/>
<feBlend mode="normal" in="SourceGraphic" in2="effect1_backgroundBlur_2292_521" result="shape"/>
</filter>
</defs>
</svg>
