<svg width="64" height="64" viewBox="0 0 64 64" fill="none" xmlns="http://www.w3.org/2000/svg">
<path d="M46.9868 28.6667C45.8402 28.6667 44.9335 27.7333 44.9335 26.6133C44.9335 25.6267 43.9468 23.5733 42.2935 21.7867C40.6668 20.0534 38.8802 19.04 37.3868 19.04C36.2402 19.04 35.3335 18.1067 35.3335 16.9867C35.3335 15.8667 36.2668 14.9333 37.3868 14.9333C40.0535 14.9333 42.8535 16.3734 45.3068 18.96C47.6002 21.3867 49.0668 24.4 49.0668 26.5867C49.0668 27.7334 48.1335 28.6667 46.9868 28.6667Z" fill="#FE7D55"/>
<path d="M56.6127 28.6667C55.466 28.6667 54.5594 27.7333 54.5594 26.6133C54.5594 17.1467 46.8527 9.46668 37.4127 9.46668C36.266 9.46668 35.3594 8.53334 35.3594 7.41334C35.3594 6.29334 36.266 5.33334 37.386 5.33334C49.1194 5.33334 58.666 14.88 58.666 26.6133C58.666 27.7333 57.7327 28.6667 56.6127 28.6667Z" fill="#FE7D55"/>
<path opacity="0.8" d="M31.4402 37.8933L22.7202 46.6133C21.7602 45.76 20.8268 44.88 19.9202 43.9733C17.1735 41.2 14.6935 38.2933 12.4802 35.2533C10.2935 32.2133 8.5335 29.1733 7.2535 26.16C5.9735 23.12 5.3335 20.2133 5.3335 17.44C5.3335 15.6267 5.6535 13.8933 6.2935 12.2933C6.9335 10.6667 7.94683 9.17334 9.36016 7.84001C11.0668 6.16001 12.9335 5.33334 14.9068 5.33334C15.6535 5.33334 16.4002 5.49334 17.0668 5.81334C17.7602 6.13334 18.3735 6.61334 18.8535 7.30668L25.0402 16.0267C25.5202 16.6933 25.8668 17.3067 26.1068 17.8933C26.3468 18.4533 26.4802 19.0133 26.4802 19.52C26.4802 20.16 26.2935 20.8 25.9202 21.4133C25.5735 22.0267 25.0668 22.6667 24.4268 23.3067L22.4002 25.4133C22.1068 25.7067 21.9735 26.0533 21.9735 26.48C21.9735 26.6933 22.0002 26.88 22.0535 27.0933C22.1335 27.3067 22.2135 27.4667 22.2668 27.6267C22.7468 28.5067 23.5735 29.6533 24.7468 31.04C25.9468 32.4267 27.2268 33.84 28.6135 35.2533C29.5735 36.1867 30.5068 37.0933 31.4402 37.8933Z" fill="#FE7D55"/>
<path d="M58.5868 48.88C58.5868 49.6267 58.4534 50.4 58.1868 51.1467C58.1068 51.36 58.0268 51.5734 57.9201 51.7867C57.4668 52.7467 56.8801 53.6534 56.1068 54.5067C54.8001 55.9467 53.3601 56.9867 51.7334 57.6534C51.7068 57.6534 51.6801 57.68 51.6534 57.68C50.0801 58.32 48.3734 58.6667 46.5334 58.6667C43.8134 58.6667 40.9068 58.0267 37.8401 56.72C34.7734 55.4134 31.7068 53.6534 28.6668 51.44C27.6268 50.6667 26.5868 49.8934 25.6001 49.0667L34.3201 40.3467C35.0668 40.9067 35.7334 41.3334 36.2934 41.6267C36.4268 41.68 36.5868 41.76 36.7734 41.84C36.9868 41.92 37.2001 41.9467 37.4401 41.9467C37.8934 41.9467 38.2401 41.7867 38.5334 41.4934L40.5601 39.4934C41.2268 38.8267 41.8668 38.32 42.4801 38C43.0934 37.6267 43.7068 37.44 44.3734 37.44C44.8801 37.44 45.4134 37.5467 46.0001 37.7867C46.5868 38.0267 47.2001 38.3734 47.8668 38.8267L56.6934 45.0934C57.3868 45.5734 57.8668 46.1334 58.1601 46.8C58.4268 47.4667 58.5868 48.1334 58.5868 48.88Z" fill="#FE7D55"/>
</svg>
