<svg width="64" height="64" viewBox="0 0 64 64" fill="none" xmlns="http://www.w3.org/2000/svg">
<path d="M53.0133 55.84C50.48 57.7067 47.1467 58.6667 43.1733 58.6667H20.8267C20.1867 58.6667 19.5467 58.64 18.9333 58.56L37.3333 40.16L53.0133 55.84Z" fill="#FE7D55"/>
<path d="M58.6666 20.8267V43.1733C58.6666 47.1467 57.7066 50.48 55.8399 53.0133L40.1599 37.3333L58.5599 18.9333C58.6399 19.5467 58.6666 20.1867 58.6666 20.8267Z" fill="#FE7D55"/>
<path d="M40.1599 37.3333L55.8399 53.0133C55.0666 54.1333 54.1333 55.0667 53.0133 55.84L37.3333 40.16L18.9333 58.56C17.2266 58.4533 15.6799 58.1067 14.2666 57.5733C8.55993 55.4933 5.33325 50.4267 5.33325 43.1734V20.8267C5.33325 11.12 11.1199 5.33334 20.8266 5.33334H43.1733C50.4266 5.33334 55.4932 8.56001 57.5732 14.2667C58.1066 15.68 58.4532 17.2267 58.5599 18.9333L40.1599 37.3333Z" fill="#FE7D55"/>
<path d="M40.1599 37.3333L55.8399 53.0133C55.0666 54.1333 54.1333 55.0667 53.0133 55.84L37.3333 40.16L18.9333 58.56C17.2266 58.4533 15.6799 58.1067 14.2666 57.5733L15.3066 56.5333L57.5732 14.2667C58.1066 15.68 58.4532 17.2267 58.5599 18.9333L40.1599 37.3333Z" fill="white"/>
<g filter="url(#filter0_b_2292_514)">
<path d="M32.64 21.1467C31.6266 16.7467 27.7333 14.7733 24.32 14.7467C20.9066 14.7467 17.0133 16.72 16 21.12C14.88 26 17.8666 30.08 20.56 32.64C21.6266 33.6533 22.96 34.1334 24.32 34.1334C25.68 34.1334 27.0133 33.6267 28.08 32.64C30.7733 30.08 33.76 26 32.64 21.1467ZM24.4 25.3067C22.9333 25.3067 21.7333 24.1067 21.7333 22.64C21.7333 21.1733 22.9066 19.9733 24.4 19.9733H24.4267C25.8933 19.9733 27.0933 21.1733 27.0933 22.64C27.0933 24.1067 25.8666 25.3067 24.4 25.3067Z" fill="white" fill-opacity="0.3"/>
</g>
<defs>
<filter id="filter0_b_2292_514" x="-4.2417" y="-5.25333" width="57.1233" height="59.3867" filterUnits="userSpaceOnUse" color-interpolation-filters="sRGB">
<feFlood flood-opacity="0" result="BackgroundImageFix"/>
<feGaussianBlur in="BackgroundImageFix" stdDeviation="10"/>
<feComposite in2="SourceAlpha" operator="in" result="effect1_backgroundBlur_2292_514"/>
<feBlend mode="normal" in="SourceGraphic" in2="effect1_backgroundBlur_2292_514" result="shape"/>
</filter>
</defs>
</svg>
