<svg width="40" height="40" viewBox="0 0 40 40" fill="none" xmlns="http://www.w3.org/2000/svg">
<rect x="0.5" y="0.5" width="39" height="39" rx="19.5" fill="white"/>
<path d="M24.005 15.095C23.827 15.095 23.653 15.1478 23.505 15.2467C23.357 15.3456 23.2416 15.4861 23.1735 15.6506C23.1054 15.815 23.0876 15.996 23.1223 16.1706C23.157 16.3452 23.2427 16.5055 23.3686 16.6314C23.4945 16.7573 23.6548 16.843 23.8294 16.8777C24.004 16.9124 24.185 16.8946 24.3494 16.8265C24.5139 16.7584 24.6544 16.643 24.7533 16.495C24.8522 16.347 24.905 16.173 24.905 15.995C24.905 15.7563 24.8102 15.5274 24.6414 15.3586C24.4726 15.1898 24.2437 15.095 24.005 15.095V15.095ZM27.455 16.91C27.4404 16.2877 27.3239 15.6721 27.11 15.0875C26.9193 14.5873 26.6225 14.1345 26.24 13.76C25.8686 13.3756 25.4147 13.0806 24.9125 12.8975C24.3295 12.6771 23.7131 12.5579 23.09 12.545C22.295 12.5 22.04 12.5 20 12.5C17.96 12.5 17.705 12.5 16.91 12.545C16.2869 12.5579 15.6705 12.6771 15.0875 12.8975C14.5863 13.0825 14.1327 13.3772 13.76 13.76C13.3756 14.1314 13.0806 14.5853 12.8975 15.0875C12.6771 15.6705 12.5579 16.2869 12.545 16.91C12.5 17.705 12.5 17.96 12.5 20C12.5 22.04 12.5 22.295 12.545 23.09C12.5579 23.7131 12.6771 24.3295 12.8975 24.9125C13.0806 25.4147 13.3756 25.8686 13.76 26.24C14.1327 26.6228 14.5863 26.9175 15.0875 27.1025C15.6705 27.3229 16.2869 27.4421 16.91 27.455C17.705 27.5 17.96 27.5 20 27.5C22.04 27.5 22.295 27.5 23.09 27.455C23.7131 27.4421 24.3295 27.3229 24.9125 27.1025C25.4147 26.9194 25.8686 26.6244 26.24 26.24C26.6242 25.8669 26.9213 25.4136 27.11 24.9125C27.3239 24.3279 27.4404 23.7123 27.455 23.09C27.455 22.295 27.5 22.04 27.5 20C27.5 17.96 27.5 17.705 27.455 16.91V16.91ZM26.105 23C26.0995 23.4761 26.0133 23.9478 25.85 24.395C25.7302 24.7214 25.5379 25.0163 25.2875 25.2575C25.0442 25.5054 24.7499 25.6973 24.425 25.82C23.9778 25.9833 23.5061 26.0695 23.03 26.075C22.28 26.1125 22.0025 26.12 20.03 26.12C18.0575 26.12 17.78 26.12 17.03 26.075C16.5357 26.0843 16.0434 26.0081 15.575 25.85C15.2643 25.7211 14.9835 25.5296 14.75 25.2875C14.5011 25.0466 14.3111 24.7514 14.195 24.425C14.0119 23.9714 13.9103 23.489 13.895 23C13.895 22.25 13.85 21.9725 13.85 20C13.85 18.0275 13.85 17.75 13.895 17C13.8984 16.5133 13.9872 16.031 14.1575 15.575C14.2895 15.2584 14.4922 14.9762 14.75 14.75C14.9779 14.4921 15.2595 14.2873 15.575 14.15C16.0322 13.985 16.514 13.8988 17 13.895C17.75 13.895 18.0275 13.85 20 13.85C21.9725 13.85 22.25 13.85 23 13.895C23.4761 13.9005 23.9478 13.9867 24.395 14.15C24.7358 14.2765 25.0417 14.4821 25.2875 14.75C25.5333 14.9804 25.7253 15.262 25.85 15.575C26.0167 16.0317 26.103 16.5138 26.105 17C26.1425 17.75 26.15 18.0275 26.15 20C26.15 21.9725 26.1425 22.25 26.105 23ZM20 16.1525C19.2394 16.154 18.4962 16.3809 17.8645 16.8046C17.2328 17.2282 16.7408 17.8296 16.4507 18.5328C16.1607 19.236 16.0855 20.0093 16.2348 20.7552C16.3841 21.501 16.7512 22.1859 17.2896 22.7232C17.8279 23.2606 18.5135 23.6263 19.2596 23.7741C20.0058 23.922 20.779 23.8453 21.4816 23.5539C22.1842 23.2625 22.7847 22.7693 23.2071 22.1368C23.6295 21.5042 23.855 20.7606 23.855 20C23.856 19.4938 23.7569 18.9925 23.5634 18.5247C23.37 18.057 23.0859 17.6321 22.7277 17.2745C22.3694 16.917 21.944 16.6338 21.4758 16.4412C21.0077 16.2486 20.5062 16.1505 20 16.1525V16.1525ZM20 22.4975C19.506 22.4975 19.0232 22.351 18.6125 22.0766C18.2018 21.8022 17.8816 21.4121 17.6926 20.9558C17.5036 20.4994 17.4541 19.9972 17.5505 19.5128C17.6469 19.0283 17.8847 18.5833 18.234 18.234C18.5833 17.8847 19.0283 17.6469 19.5128 17.5505C19.9972 17.4541 20.4994 17.5036 20.9558 17.6926C21.4121 17.8816 21.8022 18.2018 22.0766 18.6125C22.351 19.0232 22.4975 19.506 22.4975 20C22.4975 20.328 22.4329 20.6527 22.3074 20.9558C22.1819 21.2588 21.9979 21.5341 21.766 21.766C21.5341 21.9979 21.2588 22.1819 20.9558 22.3074C20.6527 22.4329 20.328 22.4975 20 22.4975V22.4975Z" fill="black"/>
<rect x="0.5" y="0.5" width="39" height="39" rx="19.5" stroke="white"/>
</svg>
