<svg width="154" height="39" viewBox="0 0 154 39" fill="none" xmlns="http://www.w3.org/2000/svg">
<path d="M1.79999 31V8.8H17.88V13.78H7.55999V17.38H16.53V22.12H7.55999V26.02H18.03V31H1.79999Z" fill="black"/>
<path d="M31.3416 31.3C29.4616 31.3 27.8116 30.98 26.3916 30.34C24.9716 29.68 23.7916 28.81 22.8516 27.73C21.9116 26.63 21.2016 25.4 20.7216 24.04C20.2416 22.68 20.0016 21.29 20.0016 19.87C20.0016 18.45 20.2416 17.07 20.7216 15.73C21.2016 14.37 21.9116 13.15 22.8516 12.07C23.7916 10.99 24.9716 10.13 26.3916 9.49C27.8116 8.83 29.4616 8.5 31.3416 8.5C32.9416 8.5 34.3116 8.7 35.4516 9.1C36.5916 9.5 37.5416 10.02 38.3016 10.66C39.0616 11.28 39.6616 11.95 40.1016 12.67C40.5616 13.37 40.9016 14.04 41.1216 14.68C41.3616 15.3 41.5116 15.81 41.5716 16.21C41.6516 16.61 41.6916 16.81 41.6916 16.81H35.9916C35.9916 16.81 35.9416 16.65 35.8416 16.33C35.7416 16.01 35.5416 15.64 35.2416 15.22C34.9416 14.78 34.4816 14.4 33.8616 14.08C33.2416 13.76 32.4216 13.6 31.4016 13.6C30.2016 13.6 29.1916 13.91 28.3716 14.53C27.5716 15.13 26.9716 15.91 26.5716 16.87C26.1716 17.83 25.9716 18.83 25.9716 19.87C25.9716 20.91 26.1716 21.91 26.5716 22.87C26.9716 23.83 27.5716 24.62 28.3716 25.24C29.1916 25.86 30.2016 26.17 31.4016 26.17C32.4216 26.17 33.2416 26.01 33.8616 25.69C34.4816 25.37 34.9416 25 35.2416 24.58C35.5416 24.16 35.7416 23.79 35.8416 23.47C35.9416 23.15 35.9916 22.99 35.9916 22.99H41.6916C41.6916 22.99 41.6516 23.19 41.5716 23.59C41.5116 23.99 41.3616 24.51 41.1216 25.15C40.9016 25.77 40.5616 26.44 40.1016 27.16C39.6616 27.86 39.0616 28.53 38.3016 29.17C37.5416 29.79 36.5916 30.3 35.4516 30.7C34.3116 31.1 32.9416 31.3 31.3416 31.3Z" fill="black"/>
<path d="M55.0476 31.3C53.1276 31.3 51.4476 30.98 50.0076 30.34C48.5676 29.68 47.3676 28.81 46.4076 27.73C45.4476 26.63 44.7176 25.4 44.2176 24.04C43.7376 22.68 43.4976 21.29 43.4976 19.87C43.4976 18.45 43.7376 17.07 44.2176 15.73C44.7176 14.37 45.4476 13.15 46.4076 12.07C47.3676 10.99 48.5676 10.13 50.0076 9.49C51.4476 8.83 53.1276 8.5 55.0476 8.5C56.9676 8.5 58.6476 8.83 60.0876 9.49C61.5276 10.13 62.7276 10.99 63.6876 12.07C64.6676 13.15 65.3976 14.37 65.8776 15.73C66.3576 17.07 66.5976 18.45 66.5976 19.87C66.5976 21.29 66.3576 22.68 65.8776 24.04C65.3976 25.4 64.6676 26.63 63.6876 27.73C62.7276 28.81 61.5276 29.68 60.0876 30.34C58.6476 30.98 56.9676 31.3 55.0476 31.3ZM55.0476 26.17C56.2876 26.17 57.3176 25.87 58.1376 25.27C58.9576 24.65 59.5676 23.86 59.9676 22.9C60.3876 21.92 60.5976 20.91 60.5976 19.87C60.5976 18.83 60.3876 17.83 59.9676 16.87C59.5676 15.91 58.9576 15.13 58.1376 14.53C57.3176 13.91 56.2876 13.6 55.0476 13.6C53.8276 13.6 52.8076 13.91 51.9876 14.53C51.1676 15.13 50.5476 15.91 50.1276 16.87C49.7276 17.83 49.5276 18.83 49.5276 19.87C49.5276 20.91 49.7276 21.92 50.1276 22.9C50.5476 23.86 51.1676 24.65 51.9876 25.27C52.8076 25.87 53.8276 26.17 55.0476 26.17Z" fill="black"/>
<path d="M69.3 31V8.8H75.06V26.02H85.53V31H69.3Z" fill="#FE7D55"/>
<path d="M87.7875 31L95.1675 8.8H102.937L110.317 31H104.317L103.147 27.28H94.9575L93.7875 31H87.7875ZM96.4875 22.36H101.617L99.0675 14.17L96.4875 22.36Z" fill="#FE7D55"/>
<path d="M112.718 31V8.8H124.118C125.578 8.8 126.798 9.04 127.778 9.52C128.758 10 129.498 10.65 129.998 11.47C130.498 12.29 130.748 13.21 130.748 14.23C130.748 15.57 130.398 16.63 129.698 17.41C128.998 18.17 128.198 18.68 127.298 18.94V19.21C127.878 19.33 128.508 19.59 129.188 19.99C129.888 20.39 130.478 20.97 130.958 21.73C131.458 22.47 131.708 23.44 131.708 24.64C131.708 25.7 131.458 26.72 130.958 27.7C130.458 28.66 129.668 29.45 128.588 30.07C127.528 30.69 126.118 31 124.358 31H112.718ZM122.918 13.57H118.478V17.44H122.918C123.678 17.44 124.248 17.27 124.628 16.93C125.008 16.57 125.198 16.09 125.198 15.49C125.198 14.91 125.008 14.45 124.628 14.11C124.248 13.75 123.678 13.57 122.918 13.57ZM123.338 21.73H118.478V26.23H123.338C124.218 26.23 124.868 26.02 125.288 25.6C125.708 25.18 125.918 24.63 125.918 23.95C125.918 23.27 125.708 22.73 125.288 22.33C124.868 21.93 124.218 21.73 123.338 21.73Z" fill="#FE7D55"/>
<path d="M143.57 31.3C142.03 31.3 140.71 31.12 139.61 30.76C138.53 30.4 137.63 29.94 136.91 29.38C136.21 28.82 135.65 28.22 135.23 27.58C134.81 26.94 134.5 26.34 134.3 25.78C134.1 25.22 133.97 24.76 133.91 24.4C133.85 24.04 133.82 23.86 133.82 23.86H139.64C139.64 23.86 139.68 24 139.76 24.28C139.84 24.56 140.01 24.89 140.27 25.27C140.55 25.63 140.97 25.95 141.53 26.23C142.09 26.51 142.85 26.65 143.81 26.65C144.99 26.65 145.81 26.43 146.27 25.99C146.75 25.53 146.99 25.04 146.99 24.52C146.99 24.04 146.81 23.66 146.45 23.38C146.11 23.08 145.51 22.86 144.65 22.72L141.68 22.24C140.4 22.02 139.19 21.67 138.05 21.19C136.91 20.71 135.98 20.02 135.26 19.12C134.56 18.22 134.21 17.04 134.21 15.58C134.21 14.18 134.56 12.95 135.26 11.89C135.98 10.83 137 10 138.32 9.4C139.64 8.8 141.21 8.5 143.03 8.5C144.45 8.5 145.66 8.67 146.66 9.01C147.66 9.33 148.49 9.76 149.15 10.3C149.81 10.82 150.34 11.37 150.74 11.95C151.14 12.53 151.44 13.09 151.64 13.63C151.84 14.15 151.97 14.58 152.03 14.92C152.09 15.24 152.12 15.4 152.12 15.4H146.45C146.45 15.4 146.41 15.29 146.33 15.07C146.27 14.83 146.12 14.57 145.88 14.29C145.64 13.99 145.28 13.73 144.8 13.51C144.34 13.27 143.71 13.15 142.91 13.15C142.15 13.15 141.54 13.26 141.08 13.48C140.64 13.7 140.32 13.97 140.12 14.29C139.94 14.61 139.85 14.93 139.85 15.25C139.85 15.83 140.12 16.26 140.66 16.54C141.22 16.8 141.9 17 142.7 17.14L145.82 17.65C147.06 17.85 148.2 18.21 149.24 18.73C150.3 19.23 151.15 19.93 151.79 20.83C152.43 21.71 152.75 22.82 152.75 24.16C152.75 25.54 152.39 26.77 151.67 27.85C150.95 28.93 149.91 29.78 148.55 30.4C147.19 31 145.53 31.3 143.57 31.3Z" fill="#FE7D55"/>
</svg>
