<svg width="151" height="22" viewBox="0 0 151 22" fill="none" xmlns="http://www.w3.org/2000/svg">
<path d="M0 21.7105V0.289475H15.8821V5.09474H5.68909V8.56842H14.5487V13.1421H5.68909V16.9053H16.0302V21.7105H0Z" fill="white"/>
<path d="M29.1779 22C27.3211 22 25.6914 21.6912 24.2888 21.0737C22.8863 20.4368 21.7208 19.5974 20.7924 18.5553C19.864 17.4939 19.1627 16.307 18.6886 14.9947C18.2146 13.6825 17.9775 12.3412 17.9775 10.9711C17.9775 9.60088 18.2146 8.2693 18.6886 6.97632C19.1627 5.66404 19.864 4.48684 20.7924 3.44474C21.7208 2.40263 22.8863 1.57281 24.2888 0.955265C25.6914 0.318422 27.3211 0 29.1779 0C30.7582 0 32.1114 0.192983 33.2373 0.578949C34.3633 0.964913 35.3016 1.46667 36.0522 2.08421C36.8029 2.68246 37.3955 3.32895 37.8301 4.02369C38.2844 4.69912 38.6202 5.34561 38.8375 5.96316C39.0746 6.5614 39.2227 7.05351 39.282 7.43947C39.361 7.82544 39.4005 8.01842 39.4005 8.01842H33.7707C33.7707 8.01842 33.7213 7.86404 33.6225 7.55526C33.5237 7.24649 33.3262 6.88948 33.0299 6.48421C32.7336 6.05965 32.2793 5.69298 31.6669 5.38421C31.0545 5.07544 30.2446 4.92105 29.2372 4.92105C28.0519 4.92105 27.0544 5.22018 26.2445 5.81842C25.4543 6.39737 24.8617 7.15 24.4666 8.07632C24.0716 9.00263 23.874 9.96754 23.874 10.9711C23.874 11.9746 24.0716 12.9395 24.4666 13.8658C24.8617 14.7921 25.4543 15.5544 26.2445 16.1526C27.0544 16.7509 28.0519 17.05 29.2372 17.05C30.2446 17.05 31.0545 16.8956 31.6669 16.5868C32.2793 16.2781 32.7336 15.9211 33.0299 15.5158C33.3262 15.1105 33.5237 14.7535 33.6225 14.4447C33.7213 14.136 33.7707 13.9816 33.7707 13.9816H39.4005C39.4005 13.9816 39.361 14.1746 39.282 14.5605C39.2227 14.9465 39.0746 15.4482 38.8375 16.0658C38.6202 16.664 38.2844 17.3105 37.8301 18.0053C37.3955 18.6807 36.8029 19.3272 36.0522 19.9447C35.3016 20.543 34.3633 21.0351 33.2373 21.4211C32.1114 21.807 30.7582 22 29.1779 22Z" fill="white"/>
<path d="M52.5922 22C50.6958 22 49.0365 21.6912 47.6142 21.0737C46.192 20.4368 45.0067 19.5974 44.0585 18.5553C43.1104 17.4939 42.3893 16.307 41.8955 14.9947C41.4214 13.6825 41.1844 12.3412 41.1844 10.9711C41.1844 9.60088 41.4214 8.2693 41.8955 6.97632C42.3893 5.66404 43.1104 4.48684 44.0585 3.44474C45.0067 2.40263 46.192 1.57281 47.6142 0.955265C49.0365 0.318422 50.6958 0 52.5922 0C54.4885 0 56.1479 0.318422 57.5701 0.955265C58.9924 1.57281 60.1776 2.40263 61.1258 3.44474C62.0938 4.48684 62.8148 5.66404 63.2889 6.97632C63.763 8.2693 64 9.60088 64 10.9711C64 12.3412 63.763 13.6825 63.2889 14.9947C62.8148 16.307 62.0938 17.4939 61.1258 18.5553C60.1776 19.5974 58.9924 20.4368 57.5701 21.0737C56.1479 21.6912 54.4885 22 52.5922 22ZM52.5922 17.05C53.8169 17.05 54.8342 16.7605 55.6441 16.1816C56.4541 15.5833 57.0565 14.8211 57.4516 13.8947C57.8665 12.9491 58.0739 11.9746 58.0739 10.9711C58.0739 9.96754 57.8665 9.00263 57.4516 8.07632C57.0565 7.15 56.4541 6.39737 55.6441 5.81842C54.8342 5.22018 53.8169 4.92105 52.5922 4.92105C51.3872 4.92105 50.3798 5.22018 49.5699 5.81842C48.7599 6.39737 48.1476 7.15 47.7327 8.07632C47.3377 9.00263 47.1401 9.96754 47.1401 10.9711C47.1401 11.9746 47.3377 12.9491 47.7327 13.8947C48.1476 14.8211 48.7599 15.5833 49.5699 16.1816C50.3798 16.7605 51.3872 17.05 52.5922 17.05Z" fill="white"/>
<path d="M68 21.7105V0.289475H73.7289V16.9053H84.1425V21.7105H68Z" fill="#FE7D55"/>
<path d="M86.3878 21.7105L93.728 0.289475H101.456L108.796 21.7105H102.829L101.665 18.1211H93.5192L92.3555 21.7105H86.3878ZM95.0409 13.3737H100.143L97.607 5.47105L95.0409 13.3737Z" fill="#FE7D55"/>
<path d="M111.184 21.7105V0.289475H122.522C123.975 0.289475 125.188 0.521054 126.163 0.984212C127.137 1.44737 127.873 2.07456 128.371 2.86579C128.868 3.65702 129.117 4.54474 129.117 5.52895C129.117 6.82193 128.769 7.84474 128.072 8.59737C127.376 9.3307 126.58 9.82281 125.685 10.0737V10.3342C126.262 10.45 126.889 10.7009 127.565 11.0868C128.261 11.4728 128.848 12.0325 129.326 12.7658C129.823 13.4798 130.071 14.4158 130.071 15.5737C130.071 16.5965 129.823 17.5807 129.326 18.5263C128.828 19.4526 128.042 20.2149 126.968 20.8132C125.914 21.4114 124.512 21.7105 122.761 21.7105H111.184ZM121.329 4.89211H116.913V8.62632H121.329C122.085 8.62632 122.652 8.46228 123.03 8.13421C123.408 7.78684 123.597 7.32369 123.597 6.74474C123.597 6.18509 123.408 5.74123 123.03 5.41316C122.652 5.06579 122.085 4.89211 121.329 4.89211ZM121.747 12.7658H116.913V17.1079H121.747C122.622 17.1079 123.268 16.9053 123.686 16.5C124.104 16.0947 124.313 15.564 124.313 14.9079C124.313 14.2518 124.104 13.7307 123.686 13.3447C123.268 12.9588 122.622 12.7658 121.747 12.7658Z" fill="#FE7D55"/>
<path d="M141.869 22C140.338 22 139.025 21.8263 137.931 21.4789C136.857 21.1316 135.962 20.6877 135.245 20.1474C134.549 19.607 133.992 19.0281 133.574 18.4105C133.157 17.793 132.848 17.214 132.649 16.6737C132.451 16.1333 132.321 15.6895 132.262 15.3421C132.202 14.9947 132.172 14.8211 132.172 14.8211H137.961C137.961 14.8211 138 14.9561 138.08 15.2263C138.16 15.4965 138.329 15.8149 138.587 16.1816C138.866 16.5289 139.284 16.8377 139.84 17.1079C140.397 17.3781 141.153 17.5132 142.108 17.5132C143.282 17.5132 144.097 17.3009 144.555 16.8763C145.032 16.4325 145.271 15.9597 145.271 15.4579C145.271 14.9947 145.092 14.6281 144.734 14.3579C144.396 14.0684 143.799 13.8561 142.944 13.7211L139.99 13.2579C138.717 13.0456 137.513 12.7079 136.379 12.2447C135.245 11.7816 134.32 11.1158 133.604 10.2474C132.908 9.37895 132.56 8.24035 132.56 6.83158C132.56 5.4807 132.908 4.29386 133.604 3.27105C134.32 2.24825 135.335 1.44737 136.648 0.868422C137.961 0.289475 139.522 0 141.332 0C142.745 0 143.948 0.164035 144.943 0.492105C145.937 0.800878 146.763 1.21579 147.419 1.73684C148.076 2.2386 148.603 2.7693 149.001 3.32895C149.399 3.8886 149.697 4.42895 149.896 4.95C150.095 5.45175 150.224 5.86667 150.284 6.19474C150.344 6.50351 150.373 6.65789 150.373 6.65789H144.734C144.734 6.65789 144.694 6.55176 144.615 6.33947C144.555 6.1079 144.406 5.85702 144.167 5.58684C143.928 5.29737 143.57 5.04649 143.093 4.83421C142.635 4.60263 142.009 4.48684 141.213 4.48684C140.457 4.48684 139.85 4.59298 139.393 4.80526C138.955 5.01754 138.637 5.27807 138.438 5.58684C138.259 5.89562 138.17 6.20439 138.17 6.51316C138.17 7.07281 138.438 7.48772 138.975 7.7579C139.532 8.00877 140.208 8.20176 141.004 8.33684L144.107 8.82895C145.341 9.02193 146.475 9.3693 147.509 9.87105C148.563 10.3535 149.409 11.0289 150.045 11.8974C150.682 12.7465 151 13.8175 151 15.1105C151 16.4421 150.642 17.6289 149.926 18.6711C149.21 19.7132 148.175 20.5333 146.823 21.1316C145.47 21.7105 143.819 22 141.869 22Z" fill="#FE7D55"/>
</svg>
