<svg width="40" height="40" viewBox="0 0 40 40" fill="none" xmlns="http://www.w3.org/2000/svg">
<rect x="0.5" y="0.5" width="39" height="39" rx="19.5" fill="white"/>
<path d="M28.3307 16.5893C28.3307 16.5893 28.1646 15.4129 27.6533 14.8964C27.0059 14.2166 26.282 14.2133 25.95 14.1733C23.5727 14 20.0033 14 20.0033 14H19.9967C19.9967 14 16.4273 14 14.05 14.1733C13.718 14.2133 12.9941 14.2166 12.3467 14.8964C11.8354 15.4129 11.6727 16.5893 11.6727 16.5893C11.6727 16.5893 11.5 17.9722 11.5 19.3518V20.6448C11.5 22.0244 11.6693 23.4074 11.6693 23.4074C11.6693 23.4074 11.8354 24.5837 12.3434 25.1002C12.9908 25.7801 13.8408 25.7567 14.2193 25.83C15.5807 25.96 20 26 20 26C20 26 23.5727 25.9933 25.95 25.8234C26.282 25.7834 27.0059 25.7801 27.6533 25.1002C28.1646 24.5837 28.3307 23.4074 28.3307 23.4074C28.3307 23.4074 28.5 22.0278 28.5 20.6448V19.3518C28.5 17.9722 28.3307 16.5893 28.3307 16.5893ZM18.2436 22.2144V17.419L22.8355 19.825L18.2436 22.2144Z" fill="black"/>
<rect x="0.5" y="0.5" width="39" height="39" rx="19.5" stroke="white"/>
</svg>
