<svg width="40" height="40" viewBox="0 0 40 40" fill="none" xmlns="http://www.w3.org/2000/svg">
<rect x="0.5" y="0.5" width="39" height="39" rx="19.5" fill="white"/>
<path d="M26.3908 12.5001H13.6092C13.4655 12.4981 13.3228 12.5243 13.1893 12.5771C13.0558 12.6299 12.9341 12.7084 12.8311 12.808C12.7281 12.9076 12.6458 13.0264 12.589 13.1576C12.5322 13.2888 12.502 13.4298 12.5 13.5726V26.4276C12.502 26.5704 12.5322 26.7115 12.589 26.8426C12.6458 26.9738 12.7281 27.0926 12.8311 27.1922C12.9341 27.2918 13.0558 27.3703 13.1893 27.4231C13.3228 27.4759 13.4655 27.5021 13.6092 27.5001H26.3908C26.5345 27.5021 26.6772 27.4759 26.8107 27.4231C26.9442 27.3703 27.0659 27.2918 27.1689 27.1922C27.2719 27.0926 27.3542 26.9738 27.411 26.8426C27.4678 26.7115 27.498 26.5704 27.5 26.4276V13.5726C27.498 13.4298 27.4678 13.2888 27.411 13.1576C27.3542 13.0264 27.2719 12.9076 27.1689 12.808C27.0659 12.7084 26.9442 12.6299 26.8107 12.5771C26.6772 12.5243 26.5345 12.4981 26.3908 12.5001V12.5001ZM17.0498 25.0551H14.7862V18.3051H17.0498V25.0551ZM15.918 17.3601C15.6058 17.3601 15.3064 17.2368 15.0857 17.0174C14.865 16.798 14.7409 16.5004 14.7409 16.1901C14.7409 15.8798 14.865 15.5822 15.0857 15.3628C15.3064 15.1434 15.6058 15.0201 15.918 15.0201C16.0838 15.0014 16.2516 15.0177 16.4106 15.068C16.5696 15.1183 16.7161 15.2014 16.8405 15.3118C16.965 15.4223 17.0645 15.5576 17.1327 15.709C17.2009 15.8603 17.2361 16.0243 17.2361 16.1901C17.2361 16.3559 17.2009 16.5199 17.1327 16.6712C17.0645 16.8226 16.965 16.9579 16.8405 17.0684C16.7161 17.1788 16.5696 17.2619 16.4106 17.3122C16.2516 17.3625 16.0838 17.3788 15.918 17.3601V17.3601ZM25.2138 25.0551H22.9502V21.4326C22.9502 20.5251 22.6258 19.9326 21.8033 19.9326C21.5488 19.9345 21.3009 20.0138 21.0932 20.16C20.8854 20.3062 20.7277 20.5121 20.6413 20.7501C20.5823 20.9264 20.5567 21.112 20.5659 21.2976V25.0476H18.3023C18.3023 25.0476 18.3023 18.9126 18.3023 18.2976H20.5659V19.2501C20.7715 18.8954 21.0706 18.6032 21.4309 18.405C21.7912 18.2068 22.1991 18.11 22.6107 18.1251C24.1197 18.1251 25.2138 19.0926 25.2138 21.1701V25.0551Z" fill="black"/>
<rect x="0.5" y="0.5" width="39" height="39" rx="19.5" stroke="white"/>
</svg>
