<svg width="140" height="40" viewBox="0 0 140 40" fill="none" xmlns="http://www.w3.org/2000/svg">
<rect width="140" height="40" fill="white"/>
<g style="mix-blend-mode:luminosity" opacity="0.5">
<path d="M20.049 16.9665C23.9664 15.1296 27.0323 12.0126 28.7923 8.11636C27.6568 6.94748 26.1806 6.11257 24.591 5.61162L23.7394 5.33331C23.6826 5.44463 23.6258 5.61162 23.6258 5.72295C22.2632 9.50789 19.4813 12.5692 15.7342 14.2947C13.1226 15.5193 11.1923 17.7457 10.2839 20.4174L10 21.2524C10.1135 21.308 10.2839 21.3637 10.3974 21.3637C11.4761 21.7533 12.5548 22.2542 13.5768 22.8665C14.9961 20.3618 17.2671 18.2467 20.049 16.9665Z" fill="#087443"/>
<path d="M36.5135 17.1891C34.4129 20.3061 31.5174 22.8108 27.9406 24.4807C25.0451 25.8165 22.831 28.3213 21.809 31.327L21.5251 32.2732C22.6039 33.2194 23.9097 33.943 25.329 34.3883L26.1806 34.6666C26.2374 34.5553 26.2942 34.3883 26.2942 34.277C27.6568 30.4921 30.4387 27.4307 34.1858 25.7052C36.7974 24.4807 38.7845 22.2542 39.6361 19.5825L39.92 18.7476C38.7277 18.4136 37.5922 17.857 36.5135 17.1891Z" fill="#16B364"/>
<path d="M19.2542 29.3788C20.6735 26.0391 23.2851 23.3117 26.6348 21.7532C29.7006 20.306 32.2555 18.0796 34.0155 15.3522C32.7097 14.1276 31.631 12.7361 30.8361 11.0663C28.7355 14.8512 25.4426 17.9126 21.4116 19.8051C19.0839 20.8626 17.2103 22.6994 16.0748 24.9259C17.3239 26.0948 18.3458 27.5419 19.1406 29.1561C19.1406 29.1561 19.1974 29.2674 19.2542 29.3788Z" fill="#099250"/>
<path d="M46.686 26.6667H56.2536V24.0667H49.7664V12.6667H46.686V26.6667Z" fill="#101828"/>
<path d="M66.2495 16.5867H63.3935V22.1067C63.3935 23.3867 62.5163 24.3467 61.2719 24.3467C60.1091 24.3467 59.2931 23.4667 59.2931 22.2467V16.5867H56.4575V22.8667C56.4575 25.1667 57.9671 26.8267 60.2723 26.8267C61.6799 26.8267 62.8223 26.2267 63.3935 25.2667V26.6667H66.2495V16.5867Z" fill="#101828"/>
<path d="M67.3104 26.6667H70.1664V20.9467C70.1664 19.6467 70.9212 18.7867 72.1044 18.7867C73.206 18.7867 73.8996 19.6467 73.8996 20.9467V26.6667H76.7556V20.9467C76.7556 19.6467 77.5104 18.7867 78.6936 18.7867C79.7952 18.7867 80.5092 19.6467 80.5092 20.9467V26.6667H83.3448V20.0667C83.3448 18.0467 81.8964 16.4267 79.6524 16.4267C78 16.4267 76.7148 17.2867 76.2252 18.2667C75.7356 17.0667 74.6952 16.4267 73.0836 16.4267C71.6964 16.4267 70.7172 17.0867 70.1664 18.0067V16.5867H67.3104V26.6667Z" fill="#101828"/>
<path d="M84.3178 12.2067V15.1467H87.337V12.2067H84.3178ZM84.3994 26.6667H87.2554V16.5867H84.3994V26.6667Z" fill="#101828"/>
<path d="M88.32 26.6667H91.176V21.1467C91.176 19.8467 92.0532 18.9067 93.2976 18.9067C94.4808 18.9067 95.2764 19.7867 95.2764 21.0067V26.6667H98.1324V20.3867C98.1324 18.0667 96.6228 16.4267 94.2972 16.4267C92.8896 16.4267 91.7472 17.0067 91.176 17.9867V16.5867H88.32V26.6667Z" fill="#101828"/>
<path d="M104.089 26.8267C107.251 26.8267 109.516 24.6267 109.516 21.6267C109.516 18.6267 107.251 16.4267 104.089 16.4267C100.927 16.4267 98.663 18.6267 98.663 21.6267C98.663 24.6267 100.927 26.8267 104.089 26.8267ZM104.089 24.4267C102.559 24.4267 101.519 23.2867 101.519 21.6267C101.519 19.9467 102.559 18.8067 104.089 18.8067C105.619 18.8067 106.66 19.9467 106.66 21.6267C106.66 23.2867 105.619 24.4267 104.089 24.4267Z" fill="#101828"/>
<path d="M119.859 16.5867H117.003V22.1067C117.003 23.3867 116.126 24.3467 114.882 24.3467C113.719 24.3467 112.903 23.4667 112.903 22.2467V16.5867H110.067V22.8667C110.067 25.1667 111.577 26.8267 113.882 26.8267C115.29 26.8267 116.432 26.2267 117.003 25.2667V26.6667H119.859V16.5867Z" fill="#101828"/>
<path d="M124.674 26.8267C127.081 26.8267 128.672 25.5667 128.672 23.6467C128.672 19.0867 123.042 21.4267 123.042 19.3667C123.042 18.7267 123.593 18.3867 124.388 18.3867C125.163 18.3867 125.959 18.8467 126.081 19.7067H128.55C128.448 17.7267 126.775 16.4267 124.307 16.4267C122.205 16.4267 120.635 17.6867 120.635 19.4667C120.635 23.7067 126.163 21.6867 126.163 23.7467C126.163 24.3067 125.551 24.7267 124.674 24.7267C123.613 24.7267 122.899 24.1667 122.797 23.2667H120.349C120.451 25.4467 122.165 26.8267 124.674 26.8267Z" fill="#101828"/>
</g>
</svg>
