<svg width="15" height="9" viewBox="0 0 15 9" fill="none" xmlns="http://www.w3.org/2000/svg">
<path d="M14.7467 3.91902L11.4386 0.742424C11.1008 0.419192 10.5416 0.419192 10.2038 0.742424C9.86604 1.06566 9.86604 1.60066 10.2038 1.92389L12.021 3.66266H0.873617C0.39604 3.66266 0 4.04162 0 4.49861C0 4.95559 0.39604 5.33455 0.873617 5.33455H12.021L10.2038 7.07332C9.86604 7.39655 9.86604 7.93156 10.2038 8.25479C10.3786 8.42198 10.5999 8.5 10.8212 8.5C11.0425 8.5 11.2638 8.42198 11.4386 8.25479L14.7467 5.0782C15.0844 4.76611 15.0844 4.24225 14.7467 3.91902Z" fill="#333333"/>
</svg>
