<svg width="140" height="40" viewBox="0 0 140 40" fill="none" xmlns="http://www.w3.org/2000/svg">
<rect width="140" height="40" fill="white"/>
<g style="mix-blend-mode:luminosity" opacity="0.5">
<path fill-rule="evenodd" clip-rule="evenodd" d="M25.611 5.44227C25.2632 5.36869 24.9045 5.36869 24.5567 5.44227C24.1547 5.52731 23.7954 5.73433 23.5097 5.89891L23.4318 5.94366L13.7502 11.4763C13.7234 11.4916 13.6958 11.5072 13.6675 11.5233C13.3651 11.6946 12.9849 11.91 12.6929 12.2359C12.4405 12.5177 12.2495 12.8517 12.1326 13.2155C11.9974 13.6363 11.999 14.0828 12.0003 14.438C12.0004 14.4711 12.0005 14.5035 12.0005 14.535V25.4589C12.0005 25.4904 12.0004 25.5228 12.0003 25.556C11.999 25.9111 11.9974 26.3576 12.1326 26.7784C12.2495 27.1423 12.4405 27.4762 12.6929 27.758C12.9849 28.0839 13.3652 28.2994 13.6675 28.4707C13.6958 28.4867 13.7234 28.5023 13.7502 28.5176L23.4318 34.0503L23.5097 34.095C23.7954 34.2596 24.1547 34.4666 24.5567 34.5517C24.9045 34.6252 25.2632 34.6252 25.611 34.5517C26.013 34.4666 26.3723 34.2596 26.658 34.095L26.7358 34.0503L36.4175 28.5176C36.4293 28.5109 36.4413 28.504 36.4535 28.4971C36.4688 28.4884 36.4843 28.4796 36.5001 28.4707C36.8025 28.2994 37.1827 28.0839 37.4747 27.758C37.7272 27.4762 37.9182 27.1423 38.0351 26.7784C38.1703 26.3576 38.1687 25.9111 38.1674 25.556C38.1673 25.5228 38.1672 25.4904 38.1672 25.4589V14.535C38.1672 14.5035 38.1673 14.4712 38.1674 14.438C38.1687 14.0828 38.1703 13.6363 38.0351 13.2155C37.9182 12.8517 37.7272 12.5177 37.4747 12.2359C37.1827 11.91 36.8025 11.6946 36.5001 11.5233L36.499 11.5226C36.4712 11.5068 36.4439 11.4914 36.4175 11.4763L26.7358 5.94366L26.658 5.89891C26.3723 5.73433 26.013 5.52731 25.611 5.44227ZM24.7026 8.29651C24.9009 8.18321 25.0021 8.12596 25.0776 8.0885L25.0838 8.08542L25.0901 8.0885C25.1656 8.12596 25.2668 8.18321 25.4651 8.29651L34.1648 13.268L25.0838 18.4574L16.0029 13.268L24.7026 8.29651ZM14.6172 15.5552L23.7755 20.7888L23.7755 31.1676L15.0209 26.1648C14.8117 26.0452 14.7048 25.9835 14.6298 25.9343L14.6235 25.9302L14.623 25.9225C14.6177 25.8312 14.6172 25.7052 14.6172 25.4589V15.5552Z" fill="#101828"/>
<path d="M50.0747 24.4945H54.2395V27.019H46.8953V13.5933H50.0747V24.4945Z" fill="#101828"/>
<path d="M57.169 15.238C56.6112 15.238 56.1526 15.0723 55.7931 14.7408C55.4461 14.3965 55.2725 13.9758 55.2725 13.4785C55.2725 12.9685 55.4461 12.5478 55.7931 12.2163C56.1526 11.872 56.6112 11.6999 57.169 11.6999C57.7144 11.6999 58.1606 11.872 58.5077 12.2163C58.8672 12.5478 59.0469 12.9685 59.0469 13.4785C59.0469 13.9758 58.8672 14.3965 58.5077 14.7408C58.1606 15.0723 57.7144 15.238 57.169 15.238ZM58.7494 16.3473V27.019H55.57V16.3473H58.7494Z" fill="#101828"/>
<path d="M64.8092 16.1943C65.5405 16.1943 66.1789 16.3473 66.7243 16.6533C67.2821 16.9593 67.7097 17.3609 68.0072 17.8581V16.3473H71.1865V26.9999C71.1865 27.9816 70.9944 28.8678 70.6102 29.6583C70.2383 30.4615 69.6619 31.099 68.881 31.5708C68.1125 32.0425 67.1519 32.2784 65.9992 32.2784C64.4621 32.2784 63.2164 31.9023 62.262 31.15C61.3076 30.4105 60.7622 29.4033 60.6258 28.1283H63.768C63.8672 28.5363 64.1027 28.855 64.4745 29.0845C64.8464 29.3268 65.305 29.4479 65.8504 29.4479C66.5074 29.4479 67.028 29.2503 67.4122 28.855C67.8089 28.4725 68.0072 27.8541 68.0072 26.9999V25.489C67.6973 25.9863 67.2697 26.3943 66.7243 26.713C66.1789 27.019 65.5405 27.172 64.8092 27.172C63.9539 27.172 63.1792 26.9489 62.4851 26.5026C61.791 26.0436 61.2394 25.3998 60.8303 24.571C60.4337 23.7295 60.2354 22.7605 60.2354 21.664C60.2354 20.5675 60.4337 19.6049 60.8303 18.7761C61.2394 17.9474 61.791 17.3099 62.4851 16.8636C63.1792 16.4174 63.9539 16.1943 64.8092 16.1943ZM68.0072 21.6831C68.0072 20.8671 67.7841 20.2233 67.3378 19.7515C66.904 19.2798 66.371 19.0439 65.7388 19.0439C65.1067 19.0439 64.5675 19.2798 64.1213 19.7515C63.6874 20.2105 63.4705 20.848 63.4705 21.664C63.4705 22.48 63.6874 23.1303 64.1213 23.6148C64.5675 24.0865 65.1067 24.3224 65.7388 24.3224C66.371 24.3224 66.904 24.0865 67.3378 23.6148C67.7841 23.143 68.0072 22.4991 68.0072 21.6831Z" fill="#101828"/>
<path d="M79.6781 16.2325C80.868 16.2325 81.8225 16.6405 82.5414 17.4565C83.2603 18.2598 83.6198 19.369 83.6198 20.7843V27.019H80.459V21.2241C80.459 20.5101 80.2793 19.9555 79.9198 19.5603C79.5603 19.165 79.0769 18.9674 78.4696 18.9674C77.8622 18.9674 77.3788 19.165 77.0193 19.5603C76.6599 19.9555 76.4801 20.5101 76.4801 21.2241V27.019H73.3007V12.8665H76.4801V17.7816C76.8024 17.3099 77.2424 16.9338 77.8002 16.6533C78.358 16.3728 78.984 16.2325 79.6781 16.2325Z" fill="#101828"/>
<path d="M91.4255 24.2459V27.019H89.808C88.6552 27.019 87.7566 26.7321 87.112 26.1584C86.4675 25.5719 86.1452 24.622 86.1452 23.3088V19.063H84.8809V16.3473H86.1452V13.7463H89.3246V16.3473H91.407V19.063H89.3246V23.347C89.3246 23.6658 89.3989 23.8953 89.5477 24.0355C89.6964 24.1758 89.9443 24.2459 90.2914 24.2459H91.4255Z" fill="#101828"/>
<path d="M96.19 17.8581C96.4874 17.3609 96.9151 16.9593 97.4729 16.6533C98.0306 16.3473 98.669 16.1943 99.3879 16.1943C100.243 16.1943 101.018 16.4174 101.712 16.8636C102.406 17.3099 102.952 17.9474 103.348 18.7761C103.757 19.6049 103.962 20.5675 103.962 21.664C103.962 22.7605 103.757 23.7295 103.348 24.571C102.952 25.3998 102.406 26.0436 101.712 26.5026C101.018 26.9489 100.243 27.172 99.3879 27.172C98.6566 27.172 98.0182 27.0254 97.4729 26.7321C96.9275 26.4261 96.4998 26.0245 96.19 25.5273V27.019H93.0106V12.8665H96.19V17.8581ZM100.727 21.664C100.727 20.848 100.503 20.2105 100.057 19.7515C99.6234 19.2798 99.0842 19.0439 98.4397 19.0439C97.8075 19.0439 97.2683 19.2798 96.8221 19.7515C96.3883 20.2233 96.1714 20.8671 96.1714 21.6831C96.1714 22.4991 96.3883 23.143 96.8221 23.6148C97.2683 24.0865 97.8075 24.3224 98.4397 24.3224C99.0718 24.3224 99.611 24.0865 100.057 23.6148C100.503 23.1303 100.727 22.48 100.727 21.664Z" fill="#101828"/>
<path d="M110.166 27.172C109.15 27.172 108.233 26.9489 107.415 26.5026C106.609 26.0564 105.971 25.4189 105.5 24.5901C105.041 23.7614 104.812 22.7924 104.812 21.6831C104.812 20.5866 105.047 19.624 105.518 18.7953C105.989 17.9538 106.634 17.3099 107.452 16.8636C108.27 16.4174 109.187 16.1943 110.204 16.1943C111.22 16.1943 112.137 16.4174 112.955 16.8636C113.773 17.3099 114.418 17.9538 114.889 18.7953C115.36 19.624 115.595 20.5866 115.595 21.6831C115.595 22.7796 115.354 23.7486 114.87 24.5901C114.399 25.4189 113.749 26.0564 112.918 26.5026C112.1 26.9489 111.183 27.172 110.166 27.172ZM110.166 24.3415C110.774 24.3415 111.288 24.112 111.71 23.653C112.143 23.194 112.36 22.5374 112.36 21.6831C112.36 20.8289 112.15 20.1723 111.728 19.7133C111.319 19.2543 110.811 19.0248 110.204 19.0248C109.584 19.0248 109.069 19.2543 108.66 19.7133C108.251 20.1595 108.047 20.8161 108.047 21.6831C108.047 22.5374 108.245 23.194 108.642 23.653C109.051 24.112 109.559 24.3415 110.166 24.3415Z" fill="#101828"/>
<path d="M123.232 27.019L121.242 24.0546L119.569 27.019H116.129L119.551 21.5684L116.036 16.3473H119.606L121.596 19.2925L123.269 16.3473H126.709L123.232 21.7214L126.802 27.019H123.232Z" fill="#101828"/>
</g>
</svg>
