<svg width="198" height="99" viewBox="0 0 198 99" fill="none" xmlns="http://www.w3.org/2000/svg">
<rect width="44" height="25" fill="#F9F2F0"/>
<path d="M20.068 18.14C22.518 18.14 24.03 16.67 24.03 14.304V7.64H22.658V14.304C22.658 15.746 21.818 16.838 20.068 16.838C18.332 16.838 17.492 15.746 17.492 14.304V7.64H16.12V14.304C16.12 16.67 17.632 18.14 20.068 18.14ZM27.6365 18V7.64H26.2645V18H27.6365Z" fill="#81554F"/>
<rect width="83" height="25" transform="translate(54)" fill="#FFEBEB"/>
<path d="M73.48 18C76.784 18 78.422 15.41 78.422 12.82C78.422 10.23 76.784 7.64 73.48 7.64H70.12V18H73.48ZM73.424 8.844C75.846 8.844 77.05 10.832 77.05 12.82C77.05 14.808 75.846 16.796 73.424 16.796H71.492V8.844H73.424ZM86.9555 18V16.796H81.6775V13.324H86.2415V12.12H81.6775V8.844H86.8855V7.64H80.3055V18H86.9555ZM92.3225 18.14C94.7025 18.14 95.9485 16.712 95.9485 15.018C95.9485 13.338 94.7025 12.47 93.1065 12.078L91.6225 11.714C90.6705 11.476 90.0965 11.028 90.0965 10.286C90.0965 9.474 90.7825 8.718 92.1265 8.718C94.1145 8.718 94.2685 10.384 94.2685 10.384H95.6125C95.6125 10.384 95.3605 7.5 92.1685 7.5C90.2085 7.5 88.7525 8.578 88.7525 10.384C88.7525 12.022 89.9985 12.75 91.4685 13.114L92.8405 13.45C93.9605 13.73 94.5905 14.192 94.5905 15.102C94.5905 16.166 93.7225 16.894 92.3505 16.894C90.0825 16.894 89.8865 14.92 89.8865 14.92H88.4865C88.4865 14.92 88.7385 18.14 92.3225 18.14ZM99.1092 18V7.64H97.7372V18H99.1092ZM105.967 18.14C108.473 18.14 110.489 16.516 110.489 13.338V12.624H106.093V13.758H109.173C109.089 15.676 107.899 16.894 105.967 16.894C103.601 16.894 102.383 14.878 102.383 12.806C102.383 10.804 103.559 8.746 106.023 8.746C108.627 8.746 108.963 10.958 108.963 10.958H110.349C110.349 10.958 109.929 7.5 106.009 7.5C102.593 7.5 100.997 10.188 100.997 12.834C100.997 15.48 102.593 18.14 105.967 18.14ZM113.683 18V10.132L119.087 18H120.319V7.64H118.947V15.522L113.543 7.64H112.311V18H113.683Z" fill="#D30103"/>
<rect width="51" height="25" transform="translate(147)" fill="#E2EFFD"/>
<path d="M167.068 18.14C169.518 18.14 171.03 16.67 171.03 14.304V7.64H169.658V14.304C169.658 15.746 168.818 16.838 167.068 16.838C165.332 16.838 164.492 15.746 164.492 14.304V7.64H163.12V14.304C163.12 16.67 164.632 18.14 167.068 18.14ZM174.553 18L177.185 13.842L179.817 18H181.455L178.095 12.82L181.455 7.64H179.817L177.185 11.798L174.553 7.64H172.915L176.247 12.82L172.915 18H174.553Z" fill="#0D62BF"/>
<rect width="82" height="25" transform="translate(0 37)" fill="#F6EEFE"/>
<path d="M20.796 55L24.464 44.64H23.008L19.942 53.432L16.876 44.64H15.42L19.074 55H20.796ZM27.3768 55V44.64H26.0048V55H27.3768ZM33.0861 55.14C35.4661 55.14 36.7121 53.712 36.7121 52.018C36.7121 50.338 35.4661 49.47 33.8701 49.078L32.3861 48.714C31.4341 48.476 30.8601 48.028 30.8601 47.286C30.8601 46.474 31.5461 45.718 32.8901 45.718C34.8781 45.718 35.0321 47.384 35.0321 47.384H36.3761C36.3761 47.384 36.1241 44.5 32.9321 44.5C30.9721 44.5 29.5161 45.578 29.5161 47.384C29.5161 49.022 30.7621 49.75 32.2321 50.114L33.6041 50.45C34.7241 50.73 35.3541 51.192 35.3541 52.102C35.3541 53.166 34.4861 53.894 33.1141 53.894C30.8461 53.894 30.6501 51.92 30.6501 51.92H29.2501C29.2501 51.92 29.5021 55.14 33.0861 55.14ZM42.4489 55.14C44.8989 55.14 46.4109 53.67 46.4109 51.304V44.64H45.0389V51.304C45.0389 52.746 44.1989 53.838 42.4489 53.838C40.7129 53.838 39.8729 52.746 39.8729 51.304V44.64H38.5009V51.304C38.5009 53.67 40.0129 55.14 42.4489 55.14ZM49.4063 55L50.2743 52.522H54.6703L55.5383 55H56.9943L53.3263 44.64H51.6043L47.9503 55H49.4063ZM52.4723 46.208L54.2503 51.29H50.6943L52.4723 46.208ZM65.4549 55V53.796H60.1209V44.64H58.7489V55H65.4549Z" fill="#9E69F8"/>
<rect width="87" height="25" transform="translate(92 37)" fill="#E2EFFD"/>
<path d="M114.77 55V53.796H109.492V50.324H114.056V49.12H109.492V45.844H114.7V44.64H108.12V55H114.77ZM120.162 55C123.466 55 125.104 52.41 125.104 49.82C125.104 47.23 123.466 44.64 120.162 44.64H116.802V55H120.162ZM120.106 45.844C122.528 45.844 123.732 47.832 123.732 49.82C123.732 51.808 122.528 53.796 120.106 53.796H118.174V45.844H120.106ZM128.359 55V44.64H126.987V55H128.359ZM134.713 55V45.844H137.947V44.64H130.107V45.844H133.341V55H134.713ZM141.074 55V44.64H139.702V55H141.074ZM144.683 55V47.132L150.087 55H151.319V44.64H149.947V52.522L144.543 44.64H143.311V55H144.683ZM158.185 55.14C160.691 55.14 162.707 53.516 162.707 50.338V49.624H158.311V50.758H161.391C161.307 52.676 160.117 53.894 158.185 53.894C155.819 53.894 154.601 51.878 154.601 49.806C154.601 47.804 155.777 45.746 158.241 45.746C160.845 45.746 161.181 47.958 161.181 47.958H162.567C162.567 47.958 162.147 44.5 158.227 44.5C154.811 44.5 153.215 47.188 153.215 49.834C153.215 52.48 154.811 55.14 158.185 55.14Z" fill="#5DAEBE"/>
<rect width="105" height="25" transform="translate(0 74)" fill="#E5EDE8"/>
<path d="M20.208 92C22.686 92 23.666 90.53 23.666 89.088C23.666 87.478 22.476 86.834 21.804 86.624V86.54C22.21 86.386 23.274 85.784 23.274 84.244C23.274 82.844 22.084 81.64 20.11 81.64H16.12V92H20.208ZM20.054 82.83C21.384 82.83 21.93 83.656 21.93 84.482C21.93 85.308 21.384 86.134 20.054 86.134H17.492V82.83H20.054ZM20.166 87.24C21.692 87.24 22.294 88.136 22.294 89.018C22.294 89.914 21.692 90.81 20.166 90.81H17.492V87.24H20.166ZM26.9256 92V87.646H28.8156L31.3216 92H32.8756L30.2576 87.52C31.7696 87.128 32.5116 85.882 32.5116 84.636C32.5116 83.138 31.4196 81.64 29.2216 81.64H25.5536V92H26.9256ZM29.2076 82.844C30.4816 82.844 31.1116 83.754 31.1116 84.664C31.1116 85.56 30.4816 86.47 29.2076 86.47H26.9256V82.844H29.2076ZM35.8712 92L36.7392 89.522H41.1352L42.0032 92H43.4592L39.7912 81.64H38.0692L34.4152 92H35.8712ZM38.9372 83.208L40.7152 88.29H37.1592L38.9372 83.208ZM46.5858 92V84.132L51.9898 92H53.2218V81.64H51.8498V89.522L46.4458 81.64H45.2138V92H46.5858ZM58.8277 92C62.1317 92 63.7697 89.41 63.7697 86.82C63.7697 84.23 62.1317 81.64 58.8277 81.64H55.4677V92H58.8277ZM58.7717 82.844C61.1937 82.844 62.3977 84.832 62.3977 86.82C62.3977 88.808 61.1937 90.796 58.7717 90.796H56.8397V82.844H58.7717ZM67.0252 92V81.64H65.6532V92H67.0252ZM70.6346 92V84.132L76.0386 92H77.2706V81.64H75.8986V89.522L70.4946 81.64H69.2626V92H70.6346ZM84.1365 92.14C86.6425 92.14 88.6585 90.516 88.6585 87.338V86.624H84.2625V87.758H87.3425C87.2585 89.676 86.0685 90.894 84.1365 90.894C81.7705 90.894 80.5525 88.878 80.5525 86.806C80.5525 84.804 81.7285 82.746 84.1925 82.746C86.7965 82.746 87.1325 84.958 87.1325 84.958H88.5185C88.5185 84.958 88.0985 81.5 84.1785 81.5C80.7625 81.5 79.1665 84.188 79.1665 86.834C79.1665 89.48 80.7625 92.14 84.1365 92.14Z" fill="#65AD82"/>
<rect width="50" height="25" transform="translate(115 74)" fill="#EBEBEB"/>
<path d="M134.55 92.14C136.44 92.14 138.134 90.978 138.134 89.032C138.134 87.828 137.42 87.002 136.44 86.666V86.596C137.294 86.26 137.924 85.462 137.924 84.342C137.924 82.578 136.3 81.5 134.578 81.5C132.87 81.5 131.176 82.564 131.176 84.748H132.45C132.45 83.32 133.514 82.648 134.55 82.648C135.642 82.648 136.608 83.348 136.608 84.454C136.608 85.476 135.782 86.12 134.774 86.12H133.374V87.198H134.774C135.978 87.198 136.776 87.884 136.776 88.99C136.776 90.264 135.74 90.978 134.55 90.978C133.416 90.978 132.282 90.32 132.282 88.892H130.98C130.98 91.104 132.716 92.14 134.55 92.14ZM143.722 92C147.026 92 148.664 89.41 148.664 86.82C148.664 84.23 147.026 81.64 143.722 81.64H140.362V92H143.722ZM143.666 82.844C146.088 82.844 147.292 84.832 147.292 86.82C147.292 88.808 146.088 90.796 143.666 90.796H141.734V82.844H143.666Z" fill="#1F1F1F"/>
</svg>
