<svg width="140" height="40" viewBox="0 0 140 40" fill="none" xmlns="http://www.w3.org/2000/svg">
<rect width="140" height="40" fill="white"/>
<g style="mix-blend-mode:luminosity" opacity="0.5">
<path d="M26.4021 20C23.947 22.813 20.3792 24.5834 16.4082 24.5834C12.4371 24.5834 8.86927 22.813 6.41415 20C8.86927 17.187 12.4371 15.4167 16.4082 15.4167C20.3792 15.4167 23.947 17.187 26.4021 20Z" fill="white"/>
<path fill-rule="evenodd" clip-rule="evenodd" d="M3 29.1667C3 21.5728 9.00302 15.4167 16.4081 15.4167C12.4371 15.4167 8.86927 17.187 6.41415 20C8.86927 22.813 12.4371 24.5834 16.4081 24.5834C20.3792 24.5834 23.947 22.813 26.4021 20C28.5252 22.4327 29.8162 25.6451 29.8162 29.1667V34.3611C29.8162 35.0361 29.2826 35.5833 28.6244 35.5833H4.19183C3.5336 35.5833 3 35.0361 3 34.3611V29.1667ZM26.4021 20C26.4021 20 26.4021 20 26.4021 20Z" fill="#7CD4FD"/>
<path fill-rule="evenodd" clip-rule="evenodd" d="M11.3789 23.5834C9.4644 22.7884 7.76967 21.5531 6.41415 20C8.86927 17.187 12.4371 15.4167 16.4081 15.4167C20.3792 15.4167 23.947 17.187 26.4021 20C26.4021 20 26.4021 20 26.4021 20C28.5252 17.5674 29.8162 14.355 29.8162 10.8334V5.63891C29.8162 4.9639 29.2826 4.41669 28.6244 4.41669L4.19183 4.41669C3.5336 4.41669 3 4.96389 3 5.63891L3 10.8334C3 16.6034 6.46573 21.5433 11.3789 23.5834Z" fill="#0BA5EC"/>
<path d="M50.7593 13.2397V27.0833H48.0517V21.1928H42.269V27.0833H39.5614V13.2397H42.269V18.9318H48.0517V13.2397H50.7593Z" fill="#101828"/>
<path d="M58.182 27.2618C57.1506 27.2618 56.2222 27.0305 55.3971 26.5677C54.5719 26.0917 53.9208 25.424 53.4437 24.5645C52.9795 23.7051 52.7475 22.7134 52.7475 21.5895C52.7475 20.4656 52.986 19.474 53.463 18.6145C53.953 17.7551 54.617 17.094 55.4551 16.6312C56.2932 16.1552 57.2279 15.9172 58.2594 15.9172C59.2909 15.9172 60.2257 16.1552 61.0637 16.6312C61.9018 17.094 62.5594 17.7551 63.0364 18.6145C63.5264 19.474 63.7714 20.4656 63.7714 21.5895C63.7714 22.7134 63.5199 23.7051 63.0171 24.5645C62.5271 25.424 61.8567 26.0917 61.0057 26.5677C60.1676 27.0305 59.2264 27.2618 58.182 27.2618ZM58.182 24.8422C58.672 24.8422 59.1297 24.7232 59.5552 24.4852C59.9936 24.234 60.3417 23.8637 60.5996 23.3745C60.8574 22.8853 60.9864 22.2903 60.9864 21.5895C60.9864 20.545 60.7156 19.745 60.1741 19.1897C59.6455 18.6211 58.9943 18.3368 58.2207 18.3368C57.4471 18.3368 56.796 18.6211 56.2674 19.1897C55.7516 19.745 55.4938 20.545 55.4938 21.5895C55.4938 22.6341 55.7452 23.4406 56.248 24.0092C56.7638 24.5645 57.4084 24.8422 58.182 24.8422Z" fill="#101828"/>
<path d="M75.8724 16.0957V27.0833H73.1455V25.695C72.7973 26.171 72.3396 26.5478 71.7723 26.8255C71.2179 27.09 70.6119 27.2222 69.9543 27.2222C69.1163 27.2222 68.3749 27.0437 67.7302 26.6867C67.0855 26.3165 66.5762 25.781 66.2023 25.0802C65.8413 24.3662 65.6608 23.52 65.6608 22.5415V16.0957H68.3684V22.1448C68.3684 23.0175 68.5812 23.6918 69.0067 24.1678C69.4322 24.6306 70.0124 24.862 70.7473 24.862C71.4951 24.862 72.0818 24.6306 72.5072 24.1678C72.9327 23.6918 73.1455 23.0175 73.1455 22.1448V16.0957H75.8724Z" fill="#101828"/>
<path d="M81.2516 17.8013C81.5997 17.2196 82.051 16.7634 82.6054 16.4328C83.1727 16.1023 83.8174 15.937 84.5394 15.937V18.8525H83.8238C82.9729 18.8525 82.3282 19.0575 81.8898 19.4673C81.4643 19.8772 81.2516 20.5912 81.2516 21.6093V27.0833H78.5439V16.0957H81.2516V17.8013Z" fill="#101828"/>
<path d="M90.56 15.9172C91.3593 15.9172 92.062 16.0825 92.668 16.413C93.274 16.7303 93.7511 17.1468 94.0992 17.6625V16.0957H96.8262V27.1627C96.8262 28.1808 96.6263 29.0865 96.2266 29.8798C95.8269 30.6864 95.2274 31.3211 94.428 31.7838C93.6286 32.2598 92.6616 32.4978 91.527 32.4978C90.0055 32.4978 88.7549 32.1342 87.775 31.407C86.808 30.6798 86.26 29.6881 86.131 28.432H88.8193C88.9612 28.9345 89.2642 29.3311 89.7283 29.622C90.2054 29.9261 90.7791 30.0782 91.4496 30.0782C92.2361 30.0782 92.8743 29.8336 93.3643 29.3443C93.8542 28.8683 94.0992 28.1411 94.0992 27.1627V25.457C93.7511 25.9727 93.2676 26.4024 92.6487 26.7462C92.0427 27.09 91.3465 27.2618 90.56 27.2618C89.6574 27.2618 88.8322 27.0238 88.0844 26.5478C87.3366 26.0718 86.7435 25.4041 86.3051 24.5447C85.8796 23.672 85.6669 22.6737 85.6669 21.5498C85.6669 20.4392 85.8796 19.4541 86.3051 18.5947C86.7435 17.7352 87.3301 17.0741 88.0651 16.6113C88.8129 16.1486 89.6445 15.9172 90.56 15.9172ZM94.0992 21.5895C94.0992 20.9152 93.9703 20.34 93.7124 19.864C93.4545 19.3748 93.1064 19.0046 92.668 18.7533C92.2297 18.4889 91.759 18.3567 91.2562 18.3567C90.7534 18.3567 90.2892 18.4823 89.8637 18.7335C89.4382 18.9847 89.0901 19.355 88.8193 19.8442C88.5615 20.3202 88.4325 20.8887 88.4325 21.5498C88.4325 22.211 88.5615 22.7927 88.8193 23.2952C89.0901 23.7844 89.4382 24.1612 89.8637 24.4257C90.3021 24.6901 90.7662 24.8223 91.2562 24.8223C91.759 24.8223 92.2297 24.6967 92.668 24.4455C93.1064 24.1811 93.4545 23.8108 93.7124 23.3348C93.9703 22.8456 94.0992 22.2638 94.0992 21.5895Z" fill="#101828"/>
<path d="M102.178 12.4067V27.0833H99.4706V12.4067H102.178Z" fill="#101828"/>
<path d="M104.157 21.5498C104.157 20.4392 104.37 19.4541 104.795 18.5947C105.234 17.7352 105.82 17.0741 106.555 16.6113C107.303 16.1486 108.135 15.9172 109.05 15.9172C109.85 15.9172 110.546 16.0825 111.139 16.413C111.745 16.7436 112.228 17.1601 112.589 17.6625V16.0957H115.316V27.0833H112.589V25.4768C112.241 25.9925 111.758 26.4222 111.139 26.766C110.533 27.0966 109.83 27.2618 109.031 27.2618C108.128 27.2618 107.303 27.0238 106.555 26.5478C105.82 26.0718 105.234 25.4041 104.795 24.5447C104.37 23.672 104.157 22.6737 104.157 21.5498ZM112.589 21.5895C112.589 20.9152 112.461 20.34 112.203 19.864C111.945 19.3748 111.597 19.0046 111.158 18.7533C110.72 18.4889 110.249 18.3567 109.746 18.3567C109.244 18.3567 108.779 18.4823 108.354 18.7335C107.929 18.9847 107.58 19.355 107.31 19.8442C107.052 20.3202 106.923 20.8887 106.923 21.5498C106.923 22.211 107.052 22.7927 107.31 23.2952C107.58 23.7844 107.929 24.1612 108.354 24.4257C108.792 24.6901 109.257 24.8223 109.746 24.8223C110.249 24.8223 110.72 24.6967 111.158 24.4455C111.597 24.1811 111.945 23.8108 112.203 23.3348C112.461 22.8456 112.589 22.2638 112.589 21.5895Z" fill="#101828"/>
<path d="M122.061 27.2618C121.184 27.2618 120.398 27.1032 119.702 26.7858C119.005 26.4553 118.451 26.0123 118.038 25.457C117.639 24.9017 117.419 24.2868 117.381 23.6125H120.108C120.159 24.0356 120.359 24.386 120.707 24.6637C121.068 24.9413 121.513 25.0802 122.042 25.0802C122.557 25.0802 122.957 24.9744 123.241 24.7628C123.537 24.5513 123.686 24.2802 123.686 23.9497C123.686 23.5927 123.505 23.3282 123.144 23.1563C122.796 22.9712 122.235 22.7729 121.462 22.5613C120.662 22.363 120.005 22.1581 119.489 21.9465C118.986 21.735 118.548 21.411 118.174 20.9747C117.813 20.5383 117.632 19.95 117.632 19.2095C117.632 18.6013 117.8 18.046 118.135 17.5435C118.483 17.0411 118.973 16.6444 119.605 16.3535C120.25 16.0626 121.004 15.9172 121.868 15.9172C123.144 15.9172 124.163 16.2477 124.923 16.9088C125.684 17.5567 126.103 18.436 126.181 19.5467H123.589C123.55 19.1103 123.37 18.7666 123.047 18.5153C122.738 18.2509 122.319 18.1187 121.79 18.1187C121.3 18.1187 120.92 18.2112 120.649 18.3963C120.391 18.5815 120.262 18.8393 120.262 19.1698C120.262 19.5401 120.443 19.8243 120.804 20.0227C121.165 20.2078 121.726 20.3995 122.487 20.5978C123.26 20.7962 123.898 21.0011 124.401 21.2127C124.904 21.4242 125.336 21.7548 125.697 22.2043C126.071 22.6407 126.264 23.2225 126.277 23.9497C126.277 24.5843 126.103 25.1529 125.755 25.6553C125.42 26.1578 124.93 26.5545 124.285 26.8453C123.653 27.123 122.912 27.2618 122.061 27.2618Z" fill="#101828"/>
<path d="M132.6 27.2618C131.723 27.2618 130.937 27.1032 130.24 26.7858C129.544 26.4553 128.99 26.0123 128.577 25.457C128.177 24.9017 127.958 24.2868 127.92 23.6125H130.647C130.698 24.0356 130.898 24.386 131.246 24.6637C131.607 24.9413 132.052 25.0802 132.581 25.0802C133.096 25.0802 133.496 24.9744 133.78 24.7628C134.076 24.5513 134.225 24.2802 134.225 23.9497C134.225 23.5927 134.044 23.3282 133.683 23.1563C133.335 22.9712 132.774 22.7729 132 22.5613C131.201 22.363 130.543 22.1581 130.028 21.9465C129.525 21.735 129.086 21.411 128.713 20.9747C128.352 20.5383 128.171 19.95 128.171 19.2095C128.171 18.6013 128.339 18.046 128.674 17.5435C129.022 17.0411 129.512 16.6444 130.144 16.3535C130.788 16.0626 131.543 15.9172 132.407 15.9172C133.683 15.9172 134.702 16.2477 135.462 16.9088C136.223 17.5567 136.642 18.436 136.719 19.5467H134.128C134.089 19.1103 133.909 18.7666 133.586 18.5153C133.277 18.2509 132.858 18.1187 132.329 18.1187C131.839 18.1187 131.459 18.2112 131.188 18.3963C130.93 18.5815 130.801 18.8393 130.801 19.1698C130.801 19.5401 130.982 19.8243 131.343 20.0227C131.704 20.2078 132.265 20.3995 133.025 20.5978C133.799 20.7962 134.437 21.0011 134.94 21.2127C135.443 21.4242 135.875 21.7548 136.236 22.2043C136.61 22.6407 136.803 23.2225 136.816 23.9497C136.816 24.5843 136.642 25.1529 136.294 25.6553C135.959 26.1578 135.469 26.5545 134.824 26.8453C134.192 27.123 133.451 27.2618 132.6 27.2618Z" fill="#101828"/>
</g>
</svg>
