<svg width="140" height="40" viewBox="0 0 140 40" fill="none" xmlns="http://www.w3.org/2000/svg">
<rect width="140" height="40" fill="white"/>
<g style="mix-blend-mode:luminosity" opacity="0.5">
<path d="M23.1429 26.6786C29.297 26.6786 34.2858 21.6951 34.2858 15.5476C34.2858 14.8509 34.2217 14.1691 34.0991 13.5079C33.4372 13.3854 32.7547 13.3214 32.0572 13.3214C25.9032 13.3214 20.9144 18.3049 20.9144 24.4524C20.9144 25.1491 20.9784 25.8308 21.101 26.4921C21.763 26.6145 22.4455 26.6786 23.1429 26.6786Z" fill="#175CD3"/>
<path fill-rule="evenodd" clip-rule="evenodd" d="M21.101 26.4921C15.9221 25.534 12 20.9984 12 15.5476C12 9.40018 16.9888 4.41669 23.1429 4.41669C28.5994 4.41669 33.14 8.3346 34.099 13.5079C33.4371 13.3855 32.7546 13.3214 32.0571 13.3214C25.9031 13.3214 20.9143 18.3049 20.9143 24.4524C20.9143 25.1491 20.9784 25.8309 21.101 26.4921Z" fill="#1570EF"/>
<path fill-rule="evenodd" clip-rule="evenodd" d="M23.1429 26.6785C29.2969 26.6785 34.2857 21.695 34.2857 15.5476C34.2857 14.8509 34.2216 14.1691 34.099 13.5079C39.2779 14.4659 43.2 19.0016 43.2 24.4524C43.2 30.5998 38.2112 35.5833 32.0571 35.5833C26.6006 35.5833 22.06 31.6654 21.101 26.4921C21.7629 26.6145 22.4454 26.6785 23.1429 26.6785Z" fill="#2E90FA"/>
<path d="M59.8991 27.2534C63.7069 27.2534 66.4511 25.1071 66.7276 21.9196H63.5367C63.2815 23.4496 61.8136 24.4909 59.8991 24.4909C57.4953 24.4909 55.6446 22.8334 55.6446 19.6459C55.6446 16.4584 57.4953 14.7796 59.8991 14.7796C61.7711 14.7796 63.2389 15.8209 63.4516 17.3721H66.7915C66.3873 14.1634 63.6431 12.0384 59.8991 12.0384C55.9211 12.0384 52.4324 14.6309 52.4324 19.6459C52.4324 24.6609 55.8573 27.2534 59.8991 27.2534Z" fill="#101828"/>
<path d="M72.6494 16.2034C69.7138 16.2034 67.9694 17.9246 67.8418 20.0709H70.4796C70.5222 19.1784 71.1816 18.3709 72.4793 18.3709C73.6918 18.3709 74.3938 18.9871 74.3938 19.8796C74.3938 20.3259 74.1173 20.6659 73.5854 20.6659H71.7773C69.4373 20.6659 67.8631 21.9409 67.8631 24.0446C67.8631 25.8721 69.2884 27.2534 71.3731 27.2534C72.8409 27.2534 74.0322 26.5946 74.3938 25.5959V27.0834H77.3294V20.1984C77.3294 17.7759 75.3511 16.2034 72.6494 16.2034ZM72.1176 25.1071C71.288 25.1071 70.6924 24.6184 70.6924 23.9171C70.6924 23.0884 71.3305 22.5359 72.224 22.5359H74.3938V22.6846C74.3938 24.0446 73.5642 25.1071 72.1176 25.1071Z" fill="#101828"/>
<path d="M79.3166 31.4184H82.2735V26.1271C82.8479 26.8496 83.8902 27.2534 85.1028 27.2534C88.1873 27.2534 90.2721 25.0646 90.2721 21.7284C90.2721 18.3921 88.3575 16.2034 85.3581 16.2034C83.9753 16.2034 82.9117 16.7134 82.2735 17.5421V16.3734H79.3166V31.4184ZM84.7412 24.7034C83.1457 24.7034 82.1033 23.5134 82.1033 21.7284C82.1033 19.9221 83.1457 18.7321 84.7412 18.7321C86.2941 18.7321 87.3577 19.9221 87.3577 21.7284C87.3577 23.5134 86.2941 24.7034 84.7412 24.7034Z" fill="#101828"/>
<path d="M95.4786 27.2534C97.9887 27.2534 99.648 25.9146 99.648 23.8746C99.648 19.0296 93.7767 21.5159 93.7767 19.3271C93.7767 18.6471 94.3511 18.2859 95.1807 18.2859C95.9891 18.2859 96.8187 18.7746 96.9464 19.6884H99.5204C99.414 17.5846 97.6697 16.2034 95.0957 16.2034C92.9046 16.2034 91.2666 17.5421 91.2666 19.4334C91.2666 23.9384 97.0315 21.7921 97.0315 23.9809C97.0315 24.5759 96.3933 25.0221 95.4786 25.0221C94.3724 25.0221 93.6278 24.4271 93.5215 23.4709H90.9687C91.0751 25.7871 92.862 27.2534 95.4786 27.2534Z" fill="#101828"/>
<path d="M111.327 16.3734H108.349V22.2384C108.349 23.5984 107.434 24.6184 106.136 24.6184C104.924 24.6184 104.073 23.6834 104.073 22.3871V16.3734H101.116V23.0459C101.116 25.4896 102.69 27.2534 105.094 27.2534C106.562 27.2534 107.753 26.6159 108.349 25.5959V27.0834H111.327V16.3734Z" fill="#101828"/>
<path d="M113.454 27.0834H116.411V11.7196H113.454V27.0834Z" fill="#101828"/>
<path d="M125.704 23.4496C125.47 24.3634 124.683 24.8309 123.492 24.8309C122.002 24.8309 121.045 23.8959 120.832 22.3871H128.533C128.554 22.1534 128.576 21.8346 128.576 21.4309C128.576 18.9871 127.065 16.2034 123.279 16.2034C119.641 16.2034 117.982 18.9871 117.982 21.7071C117.982 24.4059 119.854 27.2534 123.492 27.2534C126.129 27.2534 128.172 25.7659 128.597 23.4496H125.704ZM123.279 18.3709C124.704 18.3709 125.534 19.3271 125.619 20.5171H120.875C121.13 19.0296 121.939 18.3709 123.279 18.3709Z" fill="#101828"/>
</g>
</svg>
